<svg width="16" height="16" viewBox="0 0 16 16" fill="none" xmlns="http://www.w3.org/2000/svg">
<path fill-rule="evenodd" clip-rule="evenodd" d="M0.856934 7.99963C0.856934 7.46706 1.28866 7.03534 1.82122 7.03534H13.2498C13.7824 7.03534 14.2141 7.46706 14.2141 7.99963C14.2141 8.53219 13.7824 8.96391 13.2498 8.96391H1.82122C1.28866 8.96391 0.856934 8.53219 0.856934 7.99963Z" fill="#333333"/>
<path fill-rule="evenodd" clip-rule="evenodd" d="M7.06808 0.889183C7.44465 0.512606 8.05521 0.512606 8.43178 0.889183L14.8604 7.31775C15.2369 7.69433 15.2369 8.30488 14.8604 8.68146L8.43178 15.11C8.05521 15.4866 7.44465 15.4866 7.06808 15.11C6.6915 14.7335 6.6915 14.1229 7.06808 13.7463L12.8148 7.99961L7.06808 2.25289C6.6915 1.87631 6.6915 1.26576 7.06808 0.889183Z" fill="#333333"/>
</svg>
